<svg xmlns="http://www.w3.org/2000/svg" viewBox="0 0 1200 720">
<defs>
 <pattern id="mini" width="72" height="72" patternUnits="userSpaceOnUse"><rect width="72" height="72" fill="#6d1719"/><path d="M36 8 48 22 64 36 48 50 36 64 24 50 8 36 24 22Z" fill="#d5b68d"/><circle cx="36" cy="36" r="7" fill="#121725"/><path d="M10 10 18 18M62 10 54 18M10 62 18 54M62 62 54 54" stroke="#c38b63" stroke-width="3"/></pattern>
 <pattern id="flowers" width="96" height="96" patternUnits="userSpaceOnUse"><rect width="96" height="96" fill="#eee0c2"/><g fill="#8f2426"><circle cx="48" cy="48" r="12"/><circle cx="20" cy="20" r="6"/><circle cx="76" cy="20" r="6"/><circle cx="20" cy="76" r="6"/><circle cx="76" cy="76" r="6"/></g><g stroke="#243142" stroke-width="4" fill="none"><path d="M48 0Q35 26 48 48T48 96M0 48Q26 35 48 48T96 48"/></g></pattern>
 <filter id="grain"><feTurbulence type="fractalNoise" baseFrequency=".75" numOctaves="2" seed="618" result="n"/><feBlend in="SourceGraphic" in2="n" mode="multiply"/></filter>
 <filter id="shadow" x="-20%" y="-20%" width="140%" height="160%"><feDropShadow dx="0" dy="18" stdDeviation="18" flood-color="#000" flood-opacity=".48"/></filter>
</defs>
<g filter="url(#shadow)">
 <rect x="38" y="38" width="1124" height="644" rx="24" fill="#2b1316"/>
 <rect x="58" y="58" width="1084" height="604" rx="15" fill="url(#mini)" stroke="#d9bd91" stroke-width="7"/>
 <rect x="118" y="112" width="964" height="496" rx="10" fill="#ead9b8" stroke="#171c28" stroke-width="12"/>
 <rect x="146" y="138" width="908" height="444" rx="8" fill="url(#flowers)" stroke="#9a2a2c" stroke-width="9"/>
 <path d="M600 166C758 166 900 254 930 360c-30 106-172 194-330 194s-300-88-330-194c30-106 172-194 330-194Z" fill="#121724" stroke="#8f2225" stroke-width="12"/>
 <path d="M600 220 690 270 736 360 690 450 600 500 510 450 464 360 510 270Z" fill="#ead9b8" stroke="#ad3434" stroke-width="12"/>
 <path d="M600 260 662 298 698 360 662 422 600 460 538 422 502 360 538 298Z" fill="#8c2426" stroke="#171b25" stroke-width="10"/>
 <circle cx="600" cy="360" r="56" fill="#ddc097" stroke="#101522" stroke-width="9"/>
 <path d="M600 314 620 342 654 350 630 375 635 410 600 394 565 410 570 375 546 350 580 342Z" fill="#8b2024"/>
 <g fill="#c9a276" opacity=".86"><circle cx="380" cy="360" r="28"/><circle cx="820" cy="360" r="28"/><circle cx="600" cy="205" r="20"/><circle cx="600" cy="515" r="20"/></g>
 <rect x="38" y="38" width="1124" height="644" rx="24" fill="transparent" filter="url(#grain)" opacity=".17"/>
</g>
</svg>